<?xml version="1.0" encoding="UTF-8"?>
<svg width="800" height="600" viewBox="0 0 800 600" fill="none" xmlns="http://www.w3.org/2000/svg">
  <!-- Background Glow -->
  <circle cx="400" cy="300" r="250" fill="url(#glow)" filter="url(#blur)" />
  
  <!-- Main Device Frame -->
  <rect x="250" y="100" width="300" height="400" rx="20" fill="#2563EB" filter="url(#shadow)" />
  <rect x="260" y="110" width="280" height="380" rx="15" fill="#1E40AF" />
  <rect x="270" y="120" width="260" height="360" rx="10" fill="#1E3A8A" />
  
  <!-- Screen Content -->
  <rect x="280" y="130" width="240" height="340" rx="8" fill="#0F172A" />
  
  <!-- UI Elements -->
  <!-- Header -->
  <rect x="295" y="145" width="210" height="30" rx="4" fill="#3B82F6" opacity="0.6" />
  
  <!-- Content Blocks -->
  <rect x="295" y="190" width="100" height="80" rx="4" fill="#60A5FA" opacity="0.4" />
  <rect x="405" y="190" width="100" height="80" rx="4" fill="#60A5FA" opacity="0.4" />
  
  <rect x="295" y="285" width="210" height="40" rx="4" fill="#3B82F6" opacity="0.3" />
  <rect x="295" y="335" width="210" height="40" rx="4" fill="#3B82F6" opacity="0.3" />
  <rect x="295" y="385" width="210" height="40" rx="4" fill="#3B82F6" opacity="0.3" />
  
  <!-- Floating Elements -->
  <circle cx="200" cy="150" r="20" fill="#6366F1" opacity="0.6" />
  <circle cx="600" cy="450" r="25" fill="#8B5CF6" opacity="0.6" />
  <circle cx="180" cy="400" r="15" fill="#EC4899" opacity="0.6" />
  <circle cx="620" cy="200" r="18" fill="#14B8A6" opacity="0.6" />
  
  <!-- Connection Lines -->
  <path d="M220 150 L 250 150" stroke="#6366F1" stroke-width="2" opacity="0.4" />
  <path d="M575 450 L 600 450" stroke="#8B5CF6" stroke-width="2" opacity="0.4" />
  <path d="M195 400 L 250 400" stroke="#EC4899" stroke-width="2" opacity="0.4" />
  <path d="M602 200 L 550 200" stroke="#14B8A6" stroke-width="2" opacity="0.4" />
  
  <!-- Decorative Dots -->
  <circle cx="230" cy="200" r="2" fill="white" opacity="0.5" />
  <circle cx="570" cy="350" r="2" fill="white" opacity="0.5" />
  <circle cx="220" cy="380" r="2" fill="white" opacity="0.5" />
  <circle cx="580" cy="180" r="2" fill="white" opacity="0.5" />
  
  <!-- Definitions -->
  <defs>
    <!-- Glow Effect -->
    <radialGradient id="glow" cx="0.5" cy="0.5" r="0.5">
      <stop offset="0%" stop-color="#3B82F6" stop-opacity="0.2" />
      <stop offset="100%" stop-color="#3B82F6" stop-opacity="0" />
    </radialGradient>
    
    <!-- Shadow Effect -->
    <filter id="shadow" x="-20%" y="-20%" width="140%" height="140%">
      <feGaussianBlur in="SourceAlpha" stdDeviation="10" />
      <feOffset dx="0" dy="4" />
      <feComposite in2="SourceAlpha" operator="out" />
      <feColorMatrix type="matrix" values="0 0 0 0 0.231373 0 0 0 0 0.388235 0 0 0 0 0.921569 0 0 0 0.25 0" />
      <feBlend mode="normal" in2="BackgroundImageFix" result="effect" />
      <feBlend mode="normal" in="SourceGraphic" in2="effect" result="shape" />
    </filter>
    
    <!-- Blur Effect -->
    <filter id="blur">
      <feGaussianBlur stdDeviation="20" />
    </filter>
  </defs>
</svg>
